PathFileType	4	(X/Y/Z)	C:/Users/opensim2020/Desktop/walking_exp_matlab/subject02_walking13_straight_03.trc	
DataRate	CameraRate	NumFrames	NumMarkers	Units	OrigDataRate	OrigDataStartFrame	OrigNumFrames	
100.00	100.00	5	41	mm	100.00	1360	129	
Frame#	Time	LFHD			RFHD			LBHD			RBHD			C7			T10			CLAV			STRN			RBAK			LSHO			LUPA			LELB			LFRM			LWRA			LWRB			LFIN			RSHO			RUPA			RELB			RFRM			RWRA			RWRB			RFIN			LASI			RASI			LPSI			RPSI			LTHI			LKNE			LTIB			LANK			LHEE			LTOE			RTHI			RKNE			RTIB			RANK			RHEE			RTOE			*39			*40			
		X1	Y1	Z1	X2	Y2	Z2	X3	Y3	Z3	X4	Y4	Z4	X5	Y5	Z5	X6	Y6	Z6	X7	Y7	Z7	X8	Y8	Z8	X9	Y9	Z9	X10	Y10	Z10	X11	Y11	Z11	X12	Y12	Z12	X13	Y13	Z13	X14	Y14	Z14	X15	Y15	Z15	X16	Y16	Z16	X17	Y17	Z17	X18	Y18	Z18	X19	Y19	Z19	X20	Y20	Z20	X21	Y21	Z21	X22	Y22	Z22	X23	Y23	Z23	X24	Y24	Z24	X25	Y25	Z25	X26	Y26	Z26	X27	Y27	Z27	X28	Y28	Z28	X29	Y29	Z29	X30	Y30	Z30	X31	Y31	Z31	X32	Y32	Z32	X33	Y33	Z33	X34	Y34	Z34	X35	Y35	Z35	X36	Y36	Z36	X37	Y37	Z37	X38	Y38	Z38	X39	Y39	Z39	X40	Y40	Z40	X41	Y41	Z41	

49	0.480	-1075.79163	-32.43346	1735.44495	-939.58856	-71.72826	1705.57019	-1125.22949	-160.03210	1671.65686	-994.39398	-211.13112	1641.41492	-1064.43762	-239.02388	1519.10413	-1066.96387	-278.71234	1239.77698	-1071.11975	-95.86144	1457.72217	-1063.32129	-35.29425	1289.35901	-1005.89948	-292.47513	1338.09302	-1242.38416	-162.39464	1499.35840	-1332.60217	-179.74144	1298.63330	-1343.92590	-189.00226	1157.78455	-1357.81433	-186.31647	1026.07666	-1313.44849	-150.84943	895.36572	-1359.56885	-183.63371	902.40985	-1356.80786	-172.88646	836.12177	-876.02930	-171.83325	1483.31384	-796.81628	-188.19070	1289.99414	-778.79010	-155.35361	1145.53784	-766.70850	-97.04031	1037.60181	-791.21625	-13.33807	933.35974	-763.65125	-58.88927	912.81995	-759.37384	-3.27448	867.68823	-1199.11060	-32.30567	998.86646	-946.69122	-50.28843	963.68848	-1131.74536	-249.62117	1029.15686	-1017.94122	-262.19028	1019.86890	-1263.07739	-53.90958	686.18420	-1235.85449	-64.93256	481.71713	-1246.34631	-115.50610	292.61334	-1212.46704	-113.80307	70.04145	-1165.97180	-154.96410	41.43198	-1210.72668	42.14706	36.12930	-879.66016	-109.25092	655.76202	-890.57825	-94.46926	461.74686	-906.34857	-246.72357	364.86899	-956.59094	-392.48050	248.03204	-1025.75012	-438.29486	230.16565	-914.19086	-356.97888	96.70436	-1009.02087	-151.05238	1800.71265	-3360.34375	2845.15283	1034.29700 
50	0.490	-1075.98169	-19.02984	1737.00195	-939.93195	-58.95734	1707.01953	-1125.78613	-146.48495	1673.38171	-995.10309	-197.71925	1643.00305	-1065.67200	-225.47128	1520.97986	-1068.68176	-265.96085	1241.75635	-1071.47595	-82.74818	1459.27917	-1063.68933	-22.45792	1290.75220	-1007.92529	-280.85074	1340.26563	-1243.02625	-147.77814	1501.62903	-1335.05322	-161.12805	1301.47119	-1348.18286	-167.34627	1160.50000	-1362.02124	-160.39816	1028.77649	-1318.32422	-120.45167	899.79303	-1364.30396	-153.73239	905.56110	-1362.37390	-139.19278	840.16321	-877.02765	-159.83981	1484.99365	-798.14026	-177.03404	1291.73669	-780.98285	-146.73833	1146.66296	-768.46545	-91.12919	1037.46472	-792.77911	-9.47183	930.98169	-764.86377	-56.08932	911.65350	-760.94598	-2.06516	864.45898	-1199.60010	-20.12121	1000.20459	-945.81329	-38.51788	967.38617	-1133.42883	-237.20036	1030.71887	-1020.12573	-250.02443	1021.80579	-1263.51221	-47.10017	685.79810	-1236.49646	-61.48866	481.31708	-1246.95020	-113.05767	292.45670	-1212.41968	-113.72684	70.10117	-1165.92908	-155.01291	41.55214	-1210.71094	42.20474	36.01653	-881.00995	-90.20886	658.48248	-892.19220	-69.63589	465.64240	-909.12567	-219.50392	366.37439	-959.36798	-362.21359	245.03151	-1028.25671	-408.62677	225.28273	-916.26501	-321.01065	95.77109	-1009.36743	-137.68312	1802.26624	-3356.71777	2846.05273	1034.22510 
51	0.500	-1075.94946	-5.69187	1738.41687	-939.61847	-45.87361	1708.25159	-1126.99707	-133.18033	1675.08948	-995.82849	-184.61269	1644.51038	-1066.81116	-212.35257	1522.72070	-1070.45166	-253.20529	1243.51379	-1071.76404	-69.64278	1460.70654	-1063.97791	-9.58490	1291.99902	-1009.79663	-267.33234	1341.59033	-1243.45618	-133.26544	1503.84863	-1337.39185	-142.52779	1304.36218	-1352.21094	-145.59042	1163.34546	-1366.51270	-134.19522	1031.84973	-1323.62195	-89.85120	905.06061	-1368.76331	-123.67771	908.80676	-1367.87720	-105.39259	844.92566	-877.77777	-147.59793	1486.43018	-799.51093	-166.62479	1293.19348	-782.87836	-137.84850	1147.68457	-769.86542	-84.87731	1037.40051	-793.91907	-6.61521	928.54053	-765.92474	-53.30414	910.59668	-762.48004	-0.69340	861.40277	-1200.14600	-8.03905	1001.31342	-945.30804	-27.08151	971.06818	-1135.00098	-224.69214	1032.09729	-1022.17590	-237.47508	1023.43109	-1263.90833	-40.36362	685.48724	-1236.99915	-58.21945	480.98755	-1247.21643	-111.00440	292.46283	-1212.27136	-113.59789	70.21257	-1165.79907	-154.95708	41.71172	-1210.66797	42.37298	35.90854	-882.08704	-71.56288	661.13751	-893.64673	-45.19237	469.95483	-911.44604	-192.12987	366.64075	-961.89008	-331.33615	240.73528	-1030.51794	-377.77841	219.00015	-918.84802	-283.48120	93.88289	-1009.99957	-124.65266	1803.70154	-3356.91431	2846.00391	1034.16797 
52	0.510	-1076.06396	7.67239	1739.50024	-940.00360	-33.00671	1709.56641	-1126.86450	-119.50842	1676.11816	-996.47699	-171.54066	1645.58508	-1067.80896	-198.90358	1523.94885	-1072.20911	-240.40529	1245.03198	-1071.99780	-56.53857	1461.92200	-1064.30884	3.24758	1293.06226	-1011.67273	-254.64110	1342.87561	-1243.78418	-118.96014	1505.86108	-1339.53235	-123.94455	1307.28003	-1356.32312	-123.70268	1166.30750	-1370.71008	-107.79279	1034.94775	-1328.24524	-59.17950	910.23907	-1373.43066	-93.22154	912.73553	-1373.18005	-71.58688	850.03162	-878.58765	-135.16005	1487.49963	-801.03418	-156.13635	1294.23486	-784.61731	-129.25954	1148.59375	-771.23663	-79.21070	1036.90430	-794.95465	-3.66342	925.87677	-766.83820	-50.81356	909.32892	-764.02728	0.46785	858.35291	-1200.83618	4.00878	1002.13812	-945.51428	-15.55995	974.35394	-1136.46326	-212.18555	1033.19263	-1023.82806	-224.74150	1024.85071	-1264.34058	-33.97369	685.08551	-1237.38513	-55.18127	480.86096	-1247.03394	-109.60765	292.68320	-1212.08801	-113.47221	70.35246	-1165.68225	-154.73363	41.89666	-1210.61780	42.42131	35.43040	-883.02051	-53.05506	663.83698	-895.09180	-21.65634	473.42929	-913.36230	-164.67320	365.65918	-964.29840	-299.73370	235.09711	-1032.63965	-346.03250	211.17496	-921.62390	-244.63010	91.07059	-1010.20239	-111.26786	1804.86755	-3356.99976	2845.98779	1034.19055 
53	0.520	-1076.07117	20.97750	1740.40698	-940.43738	-20.32271	1710.05127	-1127.18103	-106.04521	1677.00867	-997.25183	-158.87482	1646.63965	-1068.66125	-185.76970	1525.09753	-1073.88550	-227.66759	1246.36206	-1072.12585	-43.37815	1462.90869	-1064.74609	16.22953	1293.93347	-1013.50464	-241.98332	1343.91492	-1243.94238	-104.81322	1507.59436	-1341.60950	-105.41078	1310.13562	-1359.84839	-101.83660	1169.22473	-1374.90198	-81.45039	1038.63623	-1332.82910	-28.44297	915.78894	-1377.87964	-62.70107	916.88379	-1378.34302	-37.86701	855.54108	-879.32227	-123.04195	1488.17786	-802.10046	-145.61218	1295.57678	-786.10413	-120.82914	1149.29065	-772.49408	-73.06336	1036.75916	-796.33594	-0.71295	923.34052	-767.63409	-47.82817	908.44000	-765.58215	1.37641	855.39569	-1201.76453	16.00194	1002.67688	-946.12201	-2.97862	977.86725	-1137.95459	-199.60083	1034.06580	-1025.31299	-211.23703	1025.82678	-1264.79968	-27.60125	684.59296	-1237.70715	-52.36460	480.78586	-1246.84546	-109.04568	293.49689	-1211.93311	-113.35361	70.72694	-1165.46631	-154.69531	42.23141	-1210.59387	42.71424	35.21588	-883.53693	-34.85186	666.58710	-896.59735	2.11488	476.67093	-915.07172	-137.18196	363.54730	-966.61975	-267.19574	228.10574	-1034.74902	-313.36246	202.03561	-924.44000	-204.66920	87.57726	-1010.58875	-98.31843	1805.77527	-3360.26270	2845.18433	1034.18005 
